<?xml version="1.0" encoding="UTF-8"?>
<svg height="128px" viewBox="0 0 128 128" width="128px" xmlns="http://www.w3.org/2000/svg">
    <path d="m 20 12 h 88 c 4.417969 0 8 3.582031 8 8 v 88 c 0 4.417969 -3.582031 8 -8 8 h -88 c -4.417969 0 -8 -3.582031 -8 -8 v -88 c 0 -4.417969 3.582031 -8 8 -8 z m 0 0" fill="#37528c"/>
    <g fill-rule="evenodd">
        <path d="m 53.191406 62.109375 l -5.726562 40.652344 h -18.605469 l 6.699219 -47.636719 l 0.34375 -1.085938 l 0.113281 -0.117187 l 0.171875 -0.457031 l 0.285156 -0.457032 l 0.746094 -0.972656 l 0.972656 -0.917968 l 1.085938 -0.800782 l 1.089844 -0.515625 l 1.144531 -0.402343 l 1.144531 -0.171876 h 10.878906 l -6.699218 -1.316406 v -0.34375 h -0.058594 l 1.890625 -13.738281 l 0.859375 -2.519531 l 1.03125 -1.660156 l 1.832031 -1.832032 c 1.144531 -0.957031 2.347656 -1.640625 3.605469 -2.0625 l 2.976562 -0.515625 h 31.777344 c 1.945312 0 3.664062 0.535157 5.152344 1.605469 l 0.515625 0.398438 l 0.628906 0.574218 l 0.859375 0.914063 l 0.800781 1.375 c 0.421875 0.992187 0.535157 2.136719 0.34375 3.433593 l -0.914062 6.527344 h 0.058593 l -2.636718 18.609375 h -18.894532 l 2.347657 -16.546875 h -12.765625 l -2.003906 14.085938 l -0.34375 1.199218 l -0.171876 0.117188 l -0.285156 0.285156 l -0.117187 0.230469 l -0.285157 0.113281 l -0.914062 0.058594 l -1.03125 -0.574219 l -0.632812 -0.34375 l -0.683594 -0.6875 l -4.867188 -7.386719 z" fill="#ffad33"/>
        <path d="m 63.898438 57.414062 l -0.859376 1.375 l -1.085937 1.144532 l -1.203125 0.917968 c -0.613281 0.382813 -1.242188 0.667969 -1.890625 0.859376 l -1.71875 0.398437 h -3.949219 l 1.71875 -12.882813 l 4.867188 7.386719 l 0.683594 0.6875 l 0.632812 0.34375 l 1.03125 0.574219 l 0.914062 -0.058594 l 0.285157 -0.113281 l 0.117187 -0.230469 l 0.285156 -0.285156 z" fill="#966214"/>
    </g>
</svg>
