
<svg xmlns="http://www.w3.org/2000/svg" version="1.1" xmlns:xlink="http://www.w3.org/1999/xlink" preserveAspectRatio="none" x="0px" y="0px" width="328px" height="108px" viewBox="0 0 328 108">
<defs>
<g id="Layer0_0_FILL">
<path fill="#966214" stroke="none" d="
M 37.85 61.25
Q 37.45 61.25 37.05 61.3 36.55 61.05 36.15 60.8 35.85 60.7 35.6 60.5 35.3 60.2 35 59.9
L 30.75 53.45 29.25 64.7
Q 30.95 64.7 32.7 64.7 33.45 64.6 34.2 64.35 35.05 64.1 35.85 63.6 36.4 63.25 36.9 62.8 37.4 62.35 37.85 61.8 38.35 61.3 38.6 60.6 38.55 60.65 38.45 60.7 38.35 60.85 38.2 60.95 38.15 61.05 38.1 61.15 37.95 61.2 37.85 61.25
M 96.15 61.25
Q 95.25 61.25 94.7 60.55 94.4 60.25 94.15 59.95
L 94.1 59.9 94.1 59.85 89.85 53.45 88.35 64.7
Q 90.05 64.7 91.8 64.7 92.55 64.6 93.3 64.35 94.15 64.1 94.9 63.6 95.65 63.1 96.3 62.5 96.75 62.15 97.05 61.65 97.4 61.15 97.7 60.6
L 97.25 61.15
Q 96.75 61.3 96.15 61.25
M 115.85 64.5
Q 116.75 64.5 117.65 64.5 118.45 64.5 119.3 64.5 120.05 64.4 120.8 64.15 121.05 64.1 121.25 64 121.6 63.85 121.9 63.7 122.15 63.55 122.4 63.4 122.65 63.25 122.9 63.05 123.35 62.7 123.8 62.3 124.25 61.95 124.55 61.45 124.6 61.4 124.65 61.35 124.75 61.15 124.85 61 125.05 60.7 125.2 60.4
L 124.9 60.8 124.75 60.95
Q 124.25 61.1 123.65 61.05 123.4 61.05 123.25 61 122.75 60.85 122.45 60.6 122.3 60.5 122.2 60.35 121.9 60.05 121.65 59.75
L 121.6 59.7 121.6 59.65 117.35 53.25 115.85 64.5
M 168.45 64.7
Q 165.35 64.45 162.75 63.95 157.15 62.9 153.85 60.85 153.1 60.35 152.45 59.85 149.3 57.3 148.95 53.45
L 147.45 64.7 168.45 64.7
M 201.85 59.05
Q 199.55 56.7 199.25 53.45
L 197.75 64.7 218.75 64.7
Q 207.5 63.75 202.75 59.85 202.25 59.45 201.85 59.05
M 257 61.55
Q 254.45 61.3 253.75 59.75
L 249.55 53.45 248.05 64.7
Q 249.75 64.7 251.5 64.7 252.1 64.6 252.7 64.4 253.1 64.3 253.45 64.2 253.8 64.05 254.1 63.9 254.8 63.55 255.45 63.1 256.2 62.55 256.75 61.85 256.85 61.7 257 61.55
M 280.95 53.5
L 279.45 64.7 300.45 64.7
Q 300.15 64.65 299.85 64.65 289.05 63.65 284.45 59.85 281.3 57.3 280.95 53.5 Z"/>

<path fill="#FFAD33" stroke="none" d="
M 40.65 47.25
L 51.8 47.25 49.75 61.7 66.25 61.7 68.55 45.45 68.5 45.45 69.3 39.75
Q 69.7 37.3 68.3 35.55 67.95 35.15 67.55 34.75 67.3 34.5 67 34.25 66.8 34.05 66.55 33.9 64.6 32.5 62.05 32.5
L 34.3 32.5
Q 32.95 32.5 31.7 32.95 30.05 33.5 28.55 34.75 25.8 37 25.3 40
L 23.65 52 23.7 52 23.7 52.3 29.55 53.45 23.45 53.45
Q 22.25 53.45 21.05 53.45 20.55 53.45 20.05 53.45 19.55 53.5 19.05 53.6 18.55 53.75 18.05 53.95 17.55 54.15 17.1 54.4 16.6 54.7 16.15 55.1 15.7 55.45 15.3 55.9 14.95 56.3 14.65 56.75 14.35 57.2 14.15 57.65 14 58.1 13.85 58.6
L 8 100.2 24.25 100.2 29.25 64.7 30.75 53.45 35 59.9
Q 35.3 60.2 35.6 60.5 35.85 60.7 36.15 60.8 36.55 61.05 37.05 61.3 37.45 61.25 37.85 61.25 37.95 61.2 38.1 61.15 38.15 61.05 38.2 60.95 38.35 60.85 38.45 60.7 38.55 60.65 38.6 60.6
L 38.9 59.55 40.65 47.25
M 127.45 45.25
L 127.4 45.25 127.55 44 127.5 44 129.15 32.3 112.9 32.3 110.25 51.8 110.3 51.8 110.3 52 110.25 52.1 110.3 52.1 116.1 53.25 107.95 53.25
Q 107.3 53.25 106.65 53.25 106.15 53.3 105.65 53.4 105.15 53.55 104.65 53.75 104.5 53.8 104.35 53.9 104.05 54 103.8 54.15 103.75 54.15 103.7 54.2 103.2 54.5 102.7 54.85 102.3 55.2 102 55.55 101.45 56.25 101.05 57 100.7 57.65 100.5 58.4 100.35 59.1 100.25 59.8
L 100.25 59.85
Q 100.1 60.9 99.9 61.9
L 98.7 70.65 98.7 70.75 96.6 85.45 85.35 85.45 87.6 69.9 87.65 69.9 88.35 64.7 89.85 53.45 94.1 59.85 94.1 59.9 94.15 59.95
Q 94.4 60.25 94.7 60.55 95.25 61.25 96.15 61.25 96.75 61.3 97.25 61.15
L 97.7 60.6 98 59.55 99.3 50.5 99.25 50.5 99.95 45.45 99.9 45.45 100.05 44.2 100 44.2 101.65 32.5 85.4 32.5 82.75 52 82.8 52 82.75 52.3 88.6 53.45 82.6 53.45
Q 81.5 53.45 80.45 53.45 79.8 53.45 79.15 53.45 78.65 53.5 78.15 53.6 77.65 53.75 77.15 53.95 76.65 54.15 76.2 54.4 75.7 54.7 75.2 55.05 74.8 55.45 74.4 55.9 74.15 56.2 73.85 56.55 73.8 56.65 73.7 56.75 73.45 57.2 73.3 57.65 73.1 58.1 73 58.6 72.9 59.25 72.8 59.85 72.6 61 72.4 62.1
L 68.1 92.7
Q 67.85 95.7 69.85 97.95 71.45 99.75 73.85 100.1 74.45 100.2 75.1 100.2
L 102.45 100.2
Q 105.7 100.2 108.45 97.95 108.8 97.6 109.15 97.4 109.3 97.3 109.45 97.2 111.45 95.2 111.7 92.7
L 113.35 81.1
Q 113.4 81.05 113.45 81.05
L 115.1 69.7 115.15 69.7 115.85 64.5 117.35 53.25 121.6 59.65 121.6 59.7 121.65 59.75
Q 121.9 60.05 122.2 60.35 122.3 60.5 122.45 60.6 122.75 60.85 123.25 61 123.4 61.05 123.65 61.05 124.25 61.1 124.75 60.95
L 124.9 60.8 125.2 60.4 125.5 59.35 126.8 50.3 126.75 50.3 127.45 45.25
M 189.25 10.25
Q 187 8 183.75 8
L 156 8
Q 153 8 150.25 10.25 148.95 11.2 148.2 12.35 147.75 12.95 147.5 13.55 147.3 14.05 147.15 14.55 147.05 15 147 15.5
L 142.85 45.45 142.8 45.45 142.1 50.65 142.05 50.65 141.85 52 141.9 52 141.85 52.3 147.7 53.45 138.25 53.45
Q 136.15 53.5 134.3 55.05 132.4 56.6 132.05 58.6
L 131.55 62.1 131.5 62.1 126.2 100.2 142.45 100.2 147.45 64.7 148.95 53.45
Q 149.3 57.3 152.45 59.85 153.1 60.35 153.85 60.85 157.15 62.9 162.75 63.95 165.35 64.45 168.45 64.7
L 170.2 53.45 158 53.45 158.4 50.5 158.35 50.5 159.05 45.45 159 45.45
Q 159.1 44.55 159.3 43.55 159.4 42.8 159.5 41.95 160.35 36.05 161.65 27.05 161.65 26.9 161.7 26.8 161.75 26.35 161.8 25.9 162 24.35 162.25 22.75
L 173.5 22.75 170.4 43.55 186.9 43.55 191 15.5
Q 191.15 13.8 190.6 12.35 190.1 11.25 189.25 10.25
M 239.55 10.25
Q 237.3 8 234.05 8
L 206.3 8
Q 204 8 201.85 9.35 201.2 9.7 200.55 10.25 199.25 11.2 198.5 12.35 198.05 12.95 197.8 13.55 197.4 14.45 197.3 15.5
L 193.15 45.45 193.1 45.45 192.4 50.65 192.35 50.65 192.15 52 192.2 52 192.15 52.3 198 53.45 188.55 53.45
Q 186.45 53.5 184.6 55.05 182.7 56.6 182.35 58.6
L 181.85 62.1 181.8 62.1 180.6 70.85 180.6 70.95 176.5 100.2 192.75 100.2 197.75 64.7 199.25 53.45
Q 199.55 56.7 201.85 59.05 202.25 59.45 202.75 59.85 207.5 63.75 218.75 64.7
L 220.5 53.45 208.3 53.45 208.7 50.5 208.65 50.5 209.35 45.45 209.3 45.45
Q 209.45 44.55 209.6 43.55 209.7 42.8 209.85 41.95 210 40.7 210.2 39.3
L 210.2 39.25
Q 211.15 32.55 212.55 22.75
L 223.8 22.75 220.7 43.55 237.2 43.55 241.3 15.5
Q 241.45 13.8 240.9 12.35 240.4 11.25 239.55 10.25
M 259.5 45.5
L 259.5 45.45 264.85 8 248.6 8 242.45 52.3 248.3 53.45 242.3 53.45
Q 240.55 53.45 238.85 53.45 238.35 53.5 237.85 53.6 237.35 53.75 236.85 53.95 236.35 54.15 235.9 54.4 235.4 54.7 234.9 55.05 234.5 55.45 234.1 55.9 233.75 56.3 233.4 56.75 233.15 57.2 232.95 57.65 232.8 58.1 232.65 58.6
L 226.8 100.2 243.05 100.2 248.05 64.7 249.55 53.45 253.75 59.75
Q 254.45 61.3 257 61.55
L 257.05 61.45
Q 257.3 61.05 257.4 60.6
L 257.7 59.55 259.5 45.5
M 285.1 29.75
Q 284.45 29.75 283.8 29.85 281.3 30.2 279.1 32 276.35 34.25 275.85 37.25
L 273.9 51.95 273.9 52 273.85 52.3 279.7 53.45 270.25 53.45
Q 268.35 53.5 266.65 54.8 266.45 54.9 266.3 55.05 264.4 56.6 264.05 58.6
L 259.2 92.7
Q 258.95 95.7 260.95 97.95 262.2 99.35 263.95 99.9 265 100.2 266.2 100.2
L 293.95 100.2
Q 297.2 100.2 299.95 97.95 302.7 95.95 303.2 92.95
L 305.95 74.45 289.45 74.45 287.7 85.45 276.45 85.45 278.55 70.7 278.6 70.7 279.45 64.7 280.95 53.5
Q 281.3 57.3 284.45 59.85 289.05 63.65 299.85 64.65 300.15 64.65 300.45 64.7
L 316.2 64.7 318.95 45.45 318.9 45.45 320.05 37.25
Q 320.55 34.25 318.3 32 317.05 30.75 315.3 30.25 314.3 29.75 313.05 29.75
L 285.1 29.75
M 291.05 45.45
L 290.95 45.45 291.1 44.5 302.55 44.5 301.3 53.45 290 53.45 290.4 50.5 290.35 50.5 291.05 45.45 Z"/>
</g>
</defs>

<g transform="matrix( 1, 0, 0, 1, 0,0) ">
<use xlink:href="#Layer0_0_FILL"/>
</g>
</svg>
