<?xml version="1.0" encoding="UTF-8" standalone="no"?>
<svg
   preserveAspectRatio="none"
   width="64"
   height="64"
   version="1.1"
   id="svg11"
   sodipodi:docname="icon.svg"
   viewBox="0 0 64.000115 64.000115"
   inkscape:version="1.2.2 (b0a8486541, 2022-12-01)"
   xml:space="preserve"
   xmlns:inkscape="http://www.inkscape.org/namespaces/inkscape"
   xmlns:sodipodi="http://sodipodi.sourceforge.net/DTD/sodipodi-0.dtd"
   xmlns="http://www.w3.org/2000/svg"
   xmlns:svg="http://www.w3.org/2000/svg"
   xmlns:rdf="http://www.w3.org/1999/02/22-rdf-syntax-ns#"
   xmlns:cc="http://creativecommons.org/ns#"
   xmlns:dc="http://purl.org/dc/elements/1.1/"><title
     id="title138">Ruffle.rs logo</title><sodipodi:namedview
     id="namedview13"
     pagecolor="#505050"
     bordercolor="#eeeeee"
     borderopacity="1"
     inkscape:showpageshadow="0"
     inkscape:pageopacity="0"
     inkscape:pagecheckerboard="0"
     inkscape:deskcolor="#505050"
     showgrid="false"
     inkscape:zoom="8"
     inkscape:cx="15.6875"
     inkscape:cy="46.125"
     inkscape:window-width="1920"
     inkscape:window-height="1043"
     inkscape:window-x="0"
     inkscape:window-y="0"
     inkscape:window-maximized="1"
     inkscape:current-layer="svg11"
     showguides="false" /><defs
     id="defs7"><g
       id="a"><path
         fill="#966214"
         d="m 37.85,61.25 q -0.4,0 -0.8,0.05 -0.5,-0.25 -0.9,-0.5 -0.3,-0.1 -0.55,-0.3 L 35,59.9 30.75,53.45 29.25,64.7 h 3.45 q 0.75,-0.1 1.5,-0.35 0.85,-0.25 1.65,-0.75 0.55,-0.35 1.05,-0.8 0.5,-0.45 0.95,-1 0.5,-0.5 0.75,-1.2 -0.05,0.05 -0.15,0.1 -0.1,0.15 -0.25,0.25 l -0.1,0.2 q -0.15,0.05 -0.25,0.1 m 58.3,0 q -0.9,0 -1.45,-0.7 -0.3,-0.3 -0.55,-0.6 L 94.1,59.9 v -0.05 l -4.25,-6.4 -1.5,11.25 h 3.45 q 0.75,-0.1 1.5,-0.35 0.85,-0.25 1.6,-0.75 0.75,-0.5 1.4,-1.1 0.45,-0.35 0.75,-0.85 0.35,-0.5 0.65,-1.05 l -0.45,0.55 q -0.5,0.15 -1.1,0.1 m 19.7,3.25 h 3.45 q 0.75,-0.1 1.5,-0.35 0.25,-0.05 0.45,-0.15 0.35,-0.15 0.65,-0.3 l 0.5,-0.3 q 0.25,-0.15 0.5,-0.35 0.45,-0.35 0.9,-0.75 0.45,-0.35 0.75,-0.85 l 0.1,-0.1 q 0.1,-0.2 0.2,-0.35 0.2,-0.3 0.35,-0.6 l -0.3,0.4 -0.15,0.15 q -0.5,0.15 -1.1,0.1 -0.25,0 -0.4,-0.05 -0.5,-0.15 -0.8,-0.4 -0.15,-0.1 -0.25,-0.25 -0.3,-0.3 -0.55,-0.6 L 121.6,59.7 v -0.05 l -4.25,-6.4 -1.5,11.25 m 52.6,0.2 q -3.1,-0.25 -5.7,-0.75 -5.6,-1.05 -8.9,-3.1 -0.75,-0.5 -1.4,-1 -3.15,-2.55 -3.5,-6.4 l -1.5,11.25 h 21 m 33.4,-5.65 q -2.3,-2.35 -2.6,-5.6 l -1.5,11.25 h 21 q -11.25,-0.95 -16,-4.85 -0.5,-0.4 -0.9,-0.8 m 55.15,2.5 q -2.55,-0.25 -3.25,-1.8 l -4.2,-6.3 -1.5,11.25 h 3.45 q 0.6,-0.1 1.2,-0.3 0.4,-0.1 0.75,-0.2 0.35,-0.15 0.65,-0.3 0.7,-0.35 1.35,-0.8 0.75,-0.55 1.3,-1.25 0.1,-0.15 0.25,-0.3 m 23.95,-8.05 -1.5,11.2 h 21 q -0.3,-0.05 -0.6,-0.05 -10.8,-1 -15.4,-4.8 -3.15,-2.55 -3.5,-6.35 z"
         id="path2" /><path
         fill="#ffad33"
         d="M 40.65,47.25 H 51.8 L 49.75,61.7 h 16.5 l 2.3,-16.25 H 68.5 l 0.8,-5.7 q 0.4,-2.45 -1,-4.2 -0.35,-0.4 -0.75,-0.8 Q 67.3,34.5 67,34.25 66.8,34.05 66.55,33.9 64.6,32.5 62.05,32.5 H 34.3 q -1.35,0 -2.6,0.45 -1.65,0.55 -3.15,1.8 Q 25.8,37 25.3,40 l -1.65,12 h 0.05 v 0.3 l 5.85,1.15 h -9.5 q -0.5,0.05 -1,0.15 -0.5,0.15 -1,0.35 -0.5,0.2 -0.95,0.45 -0.5,0.3 -0.95,0.7 -0.45,0.35 -0.85,0.8 -0.35,0.4 -0.65,0.85 -0.3,0.45 -0.5,0.9 Q 14,58.1 13.85,58.6 L 8,100.2 h 16.25 l 5,-35.5 1.5,-11.25 4.25,6.45 0.6,0.6 q 0.25,0.2 0.55,0.3 0.4,0.25 0.9,0.5 0.4,-0.05 0.8,-0.05 0.1,-0.05 0.25,-0.1 l 0.1,-0.2 q 0.15,-0.1 0.25,-0.25 0.1,-0.05 0.15,-0.1 l 0.3,-1.05 1.75,-12.3 m 86.8,-2 H 127.4 L 127.55,44 h -0.05 l 1.65,-11.7 H 112.9 l -2.65,19.5 h 0.05 V 52 l -0.05,0.1 h 0.05 l 5.8,1.15 h -9.45 q -0.5,0.05 -1,0.15 -0.5,0.15 -1,0.35 -0.15,0.05 -0.3,0.15 -0.3,0.1 -0.55,0.25 -0.05,0 -0.1,0.05 -0.5,0.3 -1,0.65 -0.4,0.35 -0.7,0.7 -0.55,0.7 -0.95,1.45 -0.35,0.65 -0.55,1.4 -0.15,0.7 -0.25,1.4 v 0.05 Q 100.1,60.9 99.9,61.9 l -1.2,8.75 v 0.1 l -2.1,14.7 H 85.35 L 87.6,69.9 h 0.05 l 0.7,-5.2 1.5,-11.25 4.25,6.4 v 0.05 l 0.05,0.05 q 0.25,0.3 0.55,0.6 0.55,0.7 1.45,0.7 0.6,0.05 1.1,-0.1 L 97.7,60.6 98,59.55 99.3,50.5 h -0.05 l 0.7,-5.05 H 99.9 l 0.15,-1.25 H 100 l 1.65,-11.7 H 85.4 L 82.75,52 h 0.05 l -0.05,0.3 5.85,1.15 h -9.45 q -0.5,0.05 -1,0.15 -0.5,0.15 -1,0.35 -0.5,0.2 -0.95,0.45 -0.5,0.3 -1,0.65 -0.4,0.4 -0.8,0.85 -0.25,0.3 -0.55,0.65 -0.05,0.1 -0.15,0.2 -0.25,0.45 -0.4,0.9 -0.2,0.45 -0.3,0.95 -0.1,0.65 -0.2,1.25 -0.2,1.15 -0.4,2.25 l -4.3,30.6 q -0.25,3 1.75,5.25 1.6,1.8 4,2.15 0.6,0.1 1.25,0.1 h 27.35 q 3.25,0 6,-2.25 0.35,-0.35 0.7,-0.55 l 0.3,-0.2 q 2,-2 2.25,-4.5 l 1.65,-11.6 q 0.05,-0.05 0.1,-0.05 L 115.1,69.7 h 0.05 l 0.7,-5.2 1.5,-11.25 4.25,6.4 v 0.05 l 0.05,0.05 q 0.25,0.3 0.55,0.6 0.1,0.15 0.25,0.25 0.3,0.25 0.8,0.4 0.15,0.05 0.4,0.05 0.6,0.05 1.1,-0.1 l 0.15,-0.15 0.3,-0.4 0.3,-1.05 1.3,-9.05 h -0.05 l 0.7,-5.05 m 61.8,-35 Q 187,8 183.75,8 H 156 q -3,0 -5.75,2.25 -1.3,0.95 -2.05,2.1 -0.45,0.6 -0.7,1.2 -0.2,0.5 -0.35,1 -0.1,0.45 -0.15,0.95 l -4.15,29.95 h -0.05 l -0.7,5.2 h -0.05 l -0.2,1.35 h 0.05 l -0.05,0.3 5.85,1.15 h -9.45 q -2.1,0.05 -3.95,1.6 -1.9,1.55 -2.25,3.55 l -0.5,3.5 h -0.05 l -5.3,38.1 h 16.25 l 5,-35.5 1.5,-11.25 q 0.35,3.85 3.5,6.4 0.65,0.5 1.4,1 3.3,2.05 8.9,3.1 2.6,0.5 5.7,0.75 L 170.2,53.45 H 158 l 0.4,-2.95 h -0.05 l 0.7,-5.05 H 159 q 0.1,-0.9 0.3,-1.9 0.1,-0.75 0.2,-1.6 0.85,-5.9 2.15,-14.9 0,-0.15 0.05,-0.25 l 0.1,-0.9 q 0.2,-1.55 0.45,-3.15 h 11.25 l -3.1,20.8 h 16.5 L 191,15.5 q 0.15,-1.7 -0.4,-3.15 -0.5,-1.1 -1.35,-2.1 m 50.3,0 Q 237.3,8 234.05,8 H 206.3 q -2.3,0 -4.45,1.35 -0.65,0.35 -1.3,0.9 -1.3,0.95 -2.05,2.1 -0.45,0.6 -0.7,1.2 -0.4,0.9 -0.5,1.95 l -4.15,29.95 h -0.05 l -0.7,5.2 h -0.05 l -0.2,1.35 h 0.05 l -0.05,0.3 5.85,1.15 h -9.45 q -2.1,0.05 -3.95,1.6 -1.9,1.55 -2.25,3.55 l -0.5,3.5 h -0.05 l -1.2,8.75 v 0.1 l -4.1,29.25 h 16.25 l 5,-35.5 1.5,-11.25 q 0.3,3.25 2.6,5.6 0.4,0.4 0.9,0.8 4.75,3.9 16,4.85 l 1.75,-11.25 h -12.2 l 0.4,-2.95 h -0.05 l 0.7,-5.05 h -0.05 q 0.15,-0.9 0.3,-1.9 0.1,-0.75 0.25,-1.6 0.15,-1.25 0.35,-2.65 v -0.05 q 0.95,-6.7 2.35,-16.5 h 11.25 l -3.1,20.8 h 16.5 l 4.1,-28.05 q 0.15,-1.7 -0.4,-3.15 -0.5,-1.1 -1.35,-2.1 M 259.5,45.5 V 45.45 L 264.85,8 H 248.6 l -6.15,44.3 5.85,1.15 h -9.45 q -0.5,0.05 -1,0.15 -0.5,0.15 -1,0.35 -0.5,0.2 -0.95,0.45 -0.5,0.3 -1,0.65 -0.4,0.4 -0.8,0.85 -0.35,0.4 -0.7,0.85 -0.25,0.45 -0.45,0.9 -0.15,0.45 -0.3,0.95 l -5.85,41.6 h 16.25 l 5,-35.5 1.5,-11.25 4.2,6.3 q 0.7,1.55 3.25,1.8 l 0.05,-0.1 q 0.25,-0.4 0.35,-0.85 l 0.3,-1.05 1.8,-14.05 m 25.6,-15.75 q -0.65,0 -1.3,0.1 -2.5,0.35 -4.7,2.15 -2.75,2.25 -3.25,5.25 l -1.95,14.7 V 52 l -0.05,0.3 5.85,1.15 h -9.45 q -1.9,0.05 -3.6,1.35 -0.2,0.1 -0.35,0.25 -1.9,1.55 -2.25,3.55 l -4.85,34.1 q -0.25,3 1.75,5.25 1.25,1.4 3,1.95 1.05,0.3 2.25,0.3 h 27.75 q 3.25,0 6,-2.25 2.75,-2 3.25,-5 l 2.75,-18.5 h -16.5 l -1.75,11 h -11.25 l 2.1,-14.75 h 0.05 l 0.85,-6 1.5,-11.2 q 0.35,3.8 3.5,6.35 4.6,3.8 15.4,4.8 0.3,0 0.6,0.05 h 15.75 l 2.75,-19.25 h -0.05 l 1.15,-8.2 q 0.5,-3 -1.75,-5.25 -1.25,-1.25 -3,-1.75 -1,-0.5 -2.25,-0.5 H 285.1 m 5.95,15.7 h -0.1 l 0.15,-0.95 h 11.45 l -1.25,8.95 H 290 l 0.4,-2.95 h -0.05 z"
         id="path4" /></g></defs><g
     id="use9"
     transform="matrix(0.88888933,0,0,0.88888933,-7.111115,-28.888903)"
     inkscape:label="logo"
     style="display:inline"
     sodipodi:insensitive="true"><rect
       style="display:inline;fill:#37528c;fill-opacity:1;stroke:#37528c;stroke-width:30.3137;stroke-linecap:round;stroke-linejoin:round;stroke-dasharray:none;stroke-opacity:1"
       id="rect284"
       width="41.686394"
       height="41.686417"
       x="23.156845"
       y="47.656868"
       inkscape:label="background"
       sodipodi:insensitive="true" /><g
       id="g2098"
       inkscape:label="icon"
       transform="matrix(0.73000263,0,0,0.73000263,11.8804,18.494957)"
       sodipodi:insensitive="true"
       style="display:inline"><path
         fill="#966214"
         d="m 43.155619,63.400067 c -0.266667,0 -0.533333,0.01667 -0.8,0.05 -0.333333,-0.166667 -0.633333,-0.333333 -0.9,-0.5 -0.2,-0.06667 -0.383333,-0.166667 -0.55,-0.3 l -0.6,-0.6 -4.25,-6.45 -1.5,11.25 h 3.45 c 0.5,-0.06667 1,-0.183333 1.5,-0.35 0.566667,-0.166667 1.116667,-0.416667 1.65,-0.75 0.366667,-0.233333 0.716667,-0.5 1.05,-0.8 0.333333,-0.3 0.65,-0.633333 0.95,-1 0.333333,-0.333333 0.583333,-0.733333 0.75,-1.2 -0.03333,0.03333 -0.08333,0.06667 -0.15,0.1 -0.06667,0.1 -0.15,0.183333 -0.25,0.25 l -0.1,0.2 c -0.1,0.03333 -0.183333,0.06667 -0.25,0.1"
         id="path220"
         sodipodi:nodetypes="ccccccccccscccccc"
         style="display:inline" /><path
         fill="#ffad33"
         d="m 45.955619,49.400067 h 11.15 l -2.05,14.45 h 16.5 l 2.3,-16.25 h -0.05 l 0.8,-5.7 c 0.266667,-1.633333 -0.06667,-3.033333 -1,-4.2 -0.233333,-0.266667 -0.483333,-0.533333 -0.75,-0.8 -0.166667,-0.166667 -0.35,-0.333333 -0.55,-0.5 -0.133333,-0.133333 -0.283333,-0.25 -0.45,-0.35 -1.3,-0.933333 -2.8,-1.4 -4.5,-1.4 h -27.75 c -0.9,0 -1.766667,0.15 -2.6,0.45 -1.1,0.366667 -2.15,0.966667 -3.15,1.8 -1.833333,1.5 -2.916667,3.25 -3.25,5.25 l -1.65,12 h 0.05 v 0.3 l 5.85,1.15 h -9.5 c -0.333333,0.03333 -0.666667,0.08333 -1,0.15 -0.333333,0.1 -0.666667,0.216667 -1,0.35 -0.333333,0.133333 -0.65,0.283333 -0.95,0.45 -0.333333,0.2 -0.65,0.433333 -0.95,0.7 -0.3,0.233333 -0.583333,0.5 -0.85,0.8 -0.233333,0.266667 -0.45,0.55 -0.65,0.85 -0.2,0.3 -0.366667,0.6 -0.5,0.9 -0.1,0.3 -0.2,0.616667 -0.3,0.95 l -5.849998,41.599993 h 16.249998 l 5,-35.499993 1.5,-11.25 4.25,6.45 0.6,0.6 c 0.166667,0.133333 0.35,0.233333 0.55,0.3 0.266667,0.166667 0.566667,0.333333 0.9,0.5 0.266667,-0.03333 0.533333,-0.05 0.8,-0.05 0.06667,-0.03333 0.15,-0.06667 0.25,-0.1 l 0.1,-0.2 c 0.1,-0.06667 0.183333,-0.15 0.25,-0.25 0.06667,-0.03333 0.116667,-0.06667 0.15,-0.1 l 0.3,-1.05 1.75,-12.3"
         id="path222"
         sodipodi:nodetypes="ccccccccsccsscccccccccscccsccccccccccccccccc"
         style="display:inline" /></g></g><metadata
     id="metadata136"><rdf:RDF><cc:Work
         rdf:about=""><dc:title>Ruffle.rs logo</dc:title><dc:date>2023-05-26</dc:date><dc:creator><cc:Agent><dc:title>Unknown; Doomsdayrs</dc:title></cc:Agent></dc:creator><dc:publisher><cc:Agent><dc:title>Doomsdayrs</dc:title></cc:Agent></dc:publisher><dc:source>Unknown</dc:source><dc:language>English</dc:language><dc:subject><rdf:Bag><rdf:li>Ruffle</rdf:li></rdf:Bag></dc:subject><dc:contributor><cc:Agent><dc:title>https://github.com/doomsdayrs; https://github.com/n0samu</dc:title></cc:Agent></dc:contributor></cc:Work></rdf:RDF></metadata></svg>
